<?xml version="1.0" encoding="UTF-8"?><svg id="_레이어_1" xmlns="http://www.w3.org/2000/svg" viewBox="0 0 500 500"><defs><style>.cls-1{fill:none;fill-rule:evenodd;stroke:#000;stroke-linecap:round;stroke-linejoin:round;stroke-width:3px;}</style></defs><path class="cls-1" d="m424.73,198.54c-35.35-.18-71.38,1.52-114.89,6.26-9.34,1.02-15.09-3.98-17.4-12.59-9.8-36.58-19.49-73.1-32.44-109.33-5.43-15.2-15.6-19.08-21.99.63-11.82,36.49-18.73,72.21-28.39,107.02-2.31,8.33-8.42,13.79-19.91,14.62-39.02,2.82-78.55,4.96-117.35-1.58-12.9-2.17-16.59,5.56-6.8,15.68,26.94,27.88,59.02,49.32,95.61,63.34,4.85,1.86,8.76,5.66,10.49,10.56.02.06.05.13.07.19,1.79,5.17,1.42,10.85-.81,15.85-15.83,35.55-25.85,71.22-35.62,106.54-4.45,16.09,7.86,15.77,13.68,12.13,25.46-15.95,51.62-40.38,89.68-73,6.71-5.75,13.63-6.1,20.06-3.17,2.68,1.22,5.03,3.05,7.05,5.2,39.93,42.37,71.11,59.17,95.81,70.99,11.48,5.49,15.99-1.43,11.52-9.68-17.36-32.03-32.01-66.17-43.48-112.33-2.45-9.84.62-17.17,8.59-23.87,32.68-27.46,62.32-49.38,95.07-67.13,11.15-6.05,8.52-16.25-8.55-16.33Z"/></svg>