<?xml version="1.0" encoding="UTF-8"?><svg id="_레이어_1" xmlns="http://www.w3.org/2000/svg" viewBox="0 0 500 500"><defs><style>.cls-1{fill:none;stroke:#000;stroke-linecap:round;stroke-linejoin:round;stroke-width:3px;}</style></defs><path class="cls-1" d="m407.28,192.43c-13.1-2.22-16.42,15.6-24.96,30.15-4.34,7.39-9.18,12.03-13.44,14.94h0c-4.22,2.88-7.87,4.06-9.87,4.54,0-.01,0-.02,0-.04,3.48-1.08,11.86-5.63,18.99-24.75,9.27-24.84,19.36-57.7,24.1-83.41,5.19-28.17,12.48-42.43-38.18-32.99-102.55,19.1-179.68,3.69-211.48,119.15-.06.21-.14.41-.21.61-.42,1.21-.8,2.33-1.14,3.34-.17.51-.33.99-.48,1.45-.2.61-.38,1.17-.54,1.68-.2.64-.38,1.19-.54,1.67-3.95,12.11-10.13,33.61-28.91,46.46-18.78,12.85-53.38,18.53-57.33,19.03-3.2.4-3.32,1.93-3.26,2.5,0,0,0,.01,0,.02,0,.04.01.08.02.1.01.06.02.1.02.1,2.99,6.91,15.17,10.16,40.53,12.11,12.57.97,23.6,3.21,39.54,9.89,4.73,1.98,10.9,4.96,18.35,8.48,1.18.56,2.38,1.12,3.62,1.7,2.07.97,4.22,1.96,6.45,2.99.89.41,1.8.82,2.72,1.24s1.86.83,2.8,1.26c15.63,6.95,34.82,14.62,56.74,20.54.4.11.82.22,1.24.33.08.02.16.04.24.06.05.01.09.02.14.04,4.29,4.14,12.86,21.7,27.86,29.26,28.11,14.16,67.29,26.6,60.09,7.22-2.78-7.48-7.98-17.32-16.82-24.56,36.56,4.6,73.67,7.86,86.65,8.05.45,0,.89,0,1.32,0,19.62.09,39.88,1.76,33.15-25.58-5.93-24.1-33.73-60.73-42.63-68.58-7.73-6.81-17.35-8.11-17.37-8.15,0,.01,10.69-1.44,21.82,5.37,10.12,6.19,40.78,37.63,51.16-3.89,10.38-41.52-16.51-79.94-30.4-82.3Z"/></svg>