<?xml version="1.0" encoding="UTF-8"?><svg id="_레이어_1" xmlns="http://www.w3.org/2000/svg" viewBox="0 0 500 500"><defs><style>.cls-1{fill:none;stroke:#000;stroke-linecap:round;stroke-linejoin:round;stroke-width:3px;}</style></defs><path class="cls-1" d="m404.8,172.21c-10.37-1.43-24.64,10.45-40.32,27.56-2.83,3.1-5.31,6.13-7.81,8.74-4.64,4.84-9.53,1.27-5.78-5.14,6.26-10.73,11.76-19.09,16.35-33.33,8.76-27.12,3.37-43.32-26.35-56.91-70.34-32.15-170.17,15.32-203.54,49.91-37.02,38.36-29.34,64.15-59.05,95.05-9.9,10.3,3.81,22.33,23.49,38.16,5.43,4.37,29,21.65,57.17,37.44,29.25,58.8,61.58,68.5,70.24,62.18,5.13-3.75,1.93-19.91-2.4-34.75,58.19,11.47,124.69,8.27,143.17-22.63,11.39-19.04,5.34-36.54-7.58-57.14-2.85-4.54-.36-7.67,4.06-5.23,4.89,2.71,9.92,4.95,12.22,5.82,23.93,9.07,41.31,12.06,45.41-37.54,4.65-56.19-9.62-70.86-19.29-72.19Z"/></svg>