<?xml version="1.0" encoding="UTF-8"?><svg id="_레이어_1" xmlns="http://www.w3.org/2000/svg" viewBox="0 0 500 500"><defs><style>.cls-1{fill:none;stroke:#000;stroke-linecap:round;stroke-linejoin:round;stroke-width:3px;}</style></defs><path class="cls-1" d="m474.98,281.12c-.11-.4-.57-.82-1.29-1.28-.21-.13-.44-.26-.68-.4-.25-.14-.52-.28-.81-.42-3.24-1.6-8.83-3.68-14.35-6.86-.22-.12-.43-.25-.64-.38-.67-.4-1.34-.81-2-1.24-.3-.2-.6-.39-.89-.6-.13-.09-.27-.19-.4-.28-.32-.22-.63-.45-.94-.68-.32-.23-.63-.47-.94-.72-.34-.27-.68-.55-1.02-.83-.24-.2-.48-.41-.71-.62-.2-.18-.4-.36-.6-.55-.2-.18-.39-.37-.58-.56-.19-.19-.38-.38-.57-.57s-.37-.39-.55-.59c-.36-.4-.72-.81-1.06-1.22-1.7-2.09-3.1-4.45-4.03-7.11-.37-1.06-.8-2.05-1.28-2.96-2.75-5.24-7.11-8.05-11.45-9.53-.19-.06-.38-.13-.57-.18-2.07-.65-4.12-1.01-5.97-1.18-.5-.05-.99-.08-1.46-.11-.31-.02-.62-.03-.91-.04s-.58-.01-.86-.01c-.28,0-.54,0-.8,0-2.03.04-3.32.24-3.32.24,0,0,0,0,0,0,0,0,0,0,0,0,0,0,0,0,0,0,0,0,0,0,0,0,0,0,0,0,.01-.01,0,0,0,0,0,0,0,0,.01-.01.02-.02,0,0,0,0,.01-.01,0-.01.02-.02.03-.04,0,0,0,0,0-.01.01-.02.03-.04.05-.06,0,0,0-.01.01-.02.01-.02.03-.04.04-.06,0-.01.01-.02.02-.03.01-.02.03-.04.04-.07,0-.01.02-.03.03-.04.01-.02.03-.05.04-.08,0-.02.02-.03.03-.05.02-.03.04-.07.05-.1,0-.02.02-.03.02-.05.03-.05.06-.11.09-.17,0,0,0-.02.01-.02.03-.06.05-.11.08-.18.01-.02.02-.05.03-.08.02-.05.04-.1.07-.15.01-.03.03-.06.04-.1.02-.05.05-.11.07-.17.01-.03.03-.07.04-.1.03-.06.05-.13.08-.2.01-.04.03-.07.04-.11.03-.09.07-.19.11-.28,0-.02.01-.03.02-.05.04-.12.09-.24.13-.37.01-.04.03-.08.04-.12.03-.09.07-.19.1-.29.02-.05.04-.1.05-.16.03-.09.06-.19.1-.29.02-.06.04-.12.06-.18.03-.1.07-.21.1-.32.02-.06.04-.12.06-.18.04-.13.08-.27.12-.41.01-.05.03-.09.04-.14.06-.19.11-.39.17-.59.01-.04.02-.09.04-.13.05-.16.09-.33.14-.5.02-.08.04-.16.06-.24.04-.15.08-.3.12-.45.02-.09.05-.18.07-.28.04-.15.08-.31.12-.47.02-.09.05-.19.07-.29.04-.17.09-.36.14-.54.02-.09.04-.18.07-.27.07-.28.14-.56.21-.85h0c.38-1.59.8-3.44,1.25-5.6,2.86-13.83-8.36-19.78-7.62-29.27,1.03-13.27,15.72-24.9-4.03-17.62-16.75,6.18-25.5,31.44-25.27,44.31.23,12.67-6.07,17.08-6.27,17.21-5.31,2.65-11.66,4.77-19.36,4.87-13.67.18-31.62-4.81-47.34-9.88-6.36-6.22,5.89-9.73,1.17-11-6-1.62-15.32,3.06-20.1,4.7-1.9-.63-3.69-1.21-5.33-1.72-17.17-5.33-91.98-29.09-106.97-34.66-13.46-5-119.97-41.68-150.05-3.71-9.25,11.68-1.69,35.46.03,40.46,1.72,5,9.78,37.09,15.17,46.64,2.99,5.3,5.41,7.1,7.11,8.07,0,0,0,0,.01,0,3.76,2.4,64.16-3.85,63.78,1.41-.42,5.97-56.61-.13-57.4,7.91h0c.29,1.88,1.38,4.25,5.31,6.97,4.5,3.11,19.19.94,33.86-.56.13-.01.26-.03.39-.04.26-.03.52-.05.78-.08.17-.02.34-.03.51-.05.28-.03.56-.06.85-.08.33-.03.66-.06.99-.09.19-.02.39-.04.58-.05.23-.02.46-.04.69-.06.19-.02.39-.03.58-.05.25-.02.5-.04.75-.06.17-.01.34-.03.51-.04.39-.03.78-.06,1.18-.09.14-.01.27-.02.41-.03.28-.02.56-.04.85-.06.16-.01.31-.02.47-.03.28-.02.56-.04.84-.05.13,0,.27-.02.4-.02.4-.02.79-.04,1.18-.06.1,0,.2,0,.3-.01.31-.01.61-.03.91-.04.14,0,.27-.01.41-.02.28-.01.56-.02.84-.03.12,0,.24,0,.36-.01.39,0,.77-.02,1.15-.02.07,0,.13,0,.2,0,.32,0,.64,0,.95,0,.12,0,.24,0,.37,0,.27,0,.54,0,.81,0,.11,0,.22,0,.33,0,.37,0,.73.02,1.09.03.04,0,.07,0,.11,0,.32.01.65.03.96.04.11,0,.22.01.32.02.26.02.51.03.76.05.1,0,.21.02.31.02.34.03.68.06,1.01.09.37.04.76.08,1.15.13.1.01.19.02.29.03.39.05.79.1,1.2.15.02,0,.03,0,.05,0,.4.05.8.11,1.21.16.1.01.21.03.32.04.42.06.85.12,1.29.18.04,0,.07.01.11.02.41.06.83.12,1.25.19.11.02.23.04.34.05.45.07.9.14,1.36.22.06,0,.11.02.17.03.42.07.85.14,1.28.21.12.02.24.04.36.06.47.08.94.16,1.42.24.09.01.17.03.26.05.42.07.84.15,1.26.22.13.02.27.05.4.07.48.09.97.17,1.46.26.11.02.23.04.34.06.41.07.81.15,1.22.23.16.03.31.06.47.09.49.09.97.18,1.47.28.15.03.3.06.45.09.39.07.77.15,1.16.22.17.03.35.07.52.1.49.09.98.19,1.47.28.18.04.37.07.56.11.35.07.7.14,1.05.2.22.04.44.09.65.13.46.09.92.18,1.39.27.26.05.52.1.78.16.26.05.51.1.77.15.29.06.58.12.88.18.07.01.14.03.21.04.7.14,1.4.28,2.11.42.12.02.25.05.37.07,8.43,1.7,16.99,3.48,24.4,4.87,0,0,.02,0,.03,0h0s0,0,0,0c5.77,6.87,13.26,16.55,23.06,15,7.19-1.14,5.7-5.85,3.03-11.93,0,0,0,0,0,0h0c.33.02.67.03,1.01.04.14,0,.29.01.44.02.22,0,.44.02.67.03.16,0,.32.01.48.02.22,0,.44.02.66.03.16,0,.31.01.47.02.24,0,.48.02.73.03.14,0,.28.01.43.02.37.01.74.03,1.11.04.14,0,.28,0,.42.01.25,0,.51.02.77.03.17,0,.35.01.52.02.22,0,.45.01.67.02.18,0,.37.01.55.02.23,0,.45.01.68.02.18,0,.36.01.54.02.33,0,.66.02,1,.03.15,0,.29,0,.44.01.32,0,.65.02.97.03.17,0,.34,0,.51.01.24,0,.48.01.72.02.2,0,.4,0,.6.01.22,0,.43.01.65.02.21,0,.41,0,.62.01.24,0,.47.01.71.02.22,0,.45,0,.67.01.36,0,.72.01,1.08.02.17,0,.34,0,.51,0,.25,0,.51,0,.76.01.2,0,.4,0,.6.01.23,0,.45,0,.68.01.2,0,.4,0,.6.01.26,0,.51,0,.77.01.17,0,.35,0,.52,0,.4,0,.81.01,1.21.02.17,0,.35,0,.52,0,.26,0,.52,0,.79.01.19,0,.37,0,.56,0,.25,0,.49,0,.74,0,.19,0,.38,0,.57,0,.26,0,.52,0,.79,0,.17,0,.34,0,.5,0,.4,0,.8,0,1.2.01.12,0,.25,0,.37,0,.32,0,.63,0,.94,0,.17,0,.34,0,.51,0,.26,0,.52,0,.78,0,.18,0,.37,0,.55,0,.24,0,.49,0,.73,0,.18,0,.35,0,.53,0,.29,0,.59,0,.88,0,.16,0,.32,0,.48,0,.36,0,.71,0,1.07,0,.18,0,.36,0,.54,0,.23,0,.46,0,.69,0,.19,0,.38,0,.56,0,.23,0,.47,0,.7,0,.16,0,.33,0,.49,0,.28,0,.56,0,.83,0,.13,0,.26,0,.38,0,.38,0,.76,0,1.14,0,.14,0,.28,0,.42,0,.25,0,.5,0,.75,0,.16,0,.33,0,.49,0,.22,0,.45,0,.67,0,.16,0,.33,0,.49,0,.24,0,.49,0,.73,0,.13,0,.26,0,.38,0,.37,0,.73,0,1.1,0,.07,0,.14,0,.21,0,.29,0,.57,0,.85,0,.14,0,.28,0,.42,0,.23,0,.46,0,.68,0,.13,0,.26,0,.38,0,.23,0,.45,0,.67,0,.13,0,.25,0,.38,0,.27,0,.54,0,.81-.01.08,0,.16,0,.23,0,.31,0,.62,0,.92-.01.11,0,.21,0,.31,0,.21,0,.42,0,.63-.01.12,0,.24,0,.37,0,.2,0,.39,0,.59-.01.11,0,.21,0,.32,0,.23,0,.45-.01.67-.02.07,0,.15,0,.22,0,.28,0,.56-.01.84-.02.07,0,.14,0,.21,0,.2,0,.41-.01.6-.02.1,0,.19,0,.29,0,.17,0,.34-.01.51-.02.09,0,.18,0,.27,0,.18,0,.36-.01.53-.02.07,0,.14,0,.2,0,.23,0,.46-.02.68-.03.05,0,.1,0,.14,0,.17,0,.34-.02.51-.02.07,0,.14,0,.21-.01.14,0,.27-.01.4-.02.07,0,.14,0,.22-.01.13,0,.26-.01.38-.02.06,0,.12,0,.18-.01.18-.01.35-.02.51-.03.92-.07,1.83-.13,2.73-.2,1.81-.14,3.58-.28,5.33-.43,1.75-.15,3.46-.31,5.15-.48,2.53-.25,5-.52,7.41-.8.8-.09,1.6-.19,2.39-.29,3.95-.49,7.74-1.04,11.39-1.64,3.65-.6,7.16-1.25,10.55-1.96,1.36-.28,2.7-.58,4.02-.88.66-.15,1.32-.31,1.97-.46,5.22-1.25,10.16-2.66,14.94-4.24,1.79-.59,3.55-1.21,5.3-1.85,18.02-6.65,33.87-16,52.71-29.05.67-.46,1.32-.92,1.96-1.38.64-.45,1.25-.9,1.86-1.35.45-.01.88,0,1.29.02.41.02.82.07,1.2.13.13.02.26.04.39.07.38.07.75.16,1.12.27.12.04.24.07.36.11,5.88,1.91,10.12,8.05,25.91,13.79,1.29.47,2.66.93,4.11,1.4,7.53,2.39,15.21,3.21,22.18,3.1.7-.01,1.39-.03,2.07-.06,3.75-.16,7.27-.58,10.4-1.15.57-.1,1.13-.21,1.67-.33.27-.06.54-.11.8-.17,7.41-1.65,12.09-4.1,11.69-5.57Z"/></svg>