<?xml version="1.0" encoding="UTF-8"?><svg id="_레이어_1" xmlns="http://www.w3.org/2000/svg" viewBox="0 0 500 500"><defs><style>.cls-1{fill:none;stroke:#000;stroke-linecap:round;stroke-linejoin:round;stroke-width:3px;}</style></defs><path class="cls-1" d="m441.85,313.71c-.18-.38-.35-.77-.54-1.17-1.27-2.78-2.66-5.88-4.1-9.18-.21-.47-.41-.95-.62-1.43-.41-.96-.83-1.93-1.25-2.91-.42-.98-.83-1.98-1.25-2.98-4.79-11.52-9.43-24.09-11.07-32.91-.21-1.15-.38-2.24-.48-3.25-.17-1.69-.19-3.17-.02-4.4.07-.49.17-.94.3-1.35.06-.19.13-.38.21-.58.02-.06.05-.13.08-.19.06-.14.12-.29.19-.44.03-.08.07-.16.1-.23.07-.15.14-.31.22-.48.04-.07.07-.15.11-.22.11-.22.23-.45.35-.69.01-.03.03-.05.04-.08.13-.24.26-.49.4-.74.05-.09.11-.19.16-.28.1-.18.2-.36.31-.54.06-.11.13-.22.2-.33.11-.18.22-.36.33-.55.07-.11.13-.22.2-.34.14-.24.29-.48.45-.72.07-.11.14-.22.21-.33.16-.25.32-.5.49-.76.09-.13.18-.27.27-.41.12-.19.25-.38.38-.57.1-.15.2-.3.3-.45.13-.19.26-.38.38-.57.1-.15.21-.3.31-.46.15-.22.31-.44.46-.67.16-.23.32-.46.48-.7,14.25-20.34,45.52-55.44,45.52-55.44-27.04,7.74-61.79,36.92-73.61,48.63-11.82,11.71-20.6,8.6-20.6,8.6l.02.16c-10.24-2.98-27.83-7.64-49.22-12.45-.73-.73-1.31-1.76-1.79-3.36-.69-2.33,2.52-7.86,2.52-7.86-8.76.68-14.09,5.25-16.43,7.82-19.23-4.01-40.53-7.86-61.8-10.65,0,0-.01,0-.02,0-9.73-1.97-24.48-3.42-22.58-19.58,1.9-16.16,15.92-40.19,15.92-40.19-46.11,11.21-73.46,50.07-77.94,56.86-75.71,7.97-146.16,43.86-144.44,52.97.06.29.15.58.27.86,4.26,9.87,46.24,16.14,46.24,16.14,0,0,9.32,6.75,32.04,12.86-.06,0-.12-.01-.18-.02,8.24,2.22,18.25,4.35,30.22,6.05,1.2,14.08,1.66,30.1,2.34,30.1.81,0,21.56-16.98,31.63-26.97.26.01.53.02.8.04.46.02.92.04,1.38.06.59.03,1.19.05,1.79.07.62.02,1.24.05,1.86.07.4.01.79.03,1.19.04.81.03,1.62.05,2.44.07.06,0,.13,0,.19,0,2.19.06,6.79.22,6.79.22,49.88,45.73,95.83,31.53,95.83,31.53-17.62-12.37-27.92-24.48-33.93-34.75,0,0,0,0,0,0,0,0,0,.01.01.02,42.56-4.8,78.25-14.24,103.27-22.37,1.48,1.53,4.2,3.28,8.99,3.52.69.04,1.43.05,2.21.02,0,0-2.52-2.85-3.1-4.94-.15-.54-.12-.97.03-1.32,12.18-4.19,21.13-7.8,26.23-9.89,0,0-.04,0-.12,0,.03-.01.06-.02.09-.04,3.08,3.68,30.74,36.18,63.73,55.52,0,0-1.79-3.63-4.41-9.28-.33-.71-.67-1.44-1.02-2.21Z"/></svg>