<?xml version="1.0" encoding="UTF-8"?><svg id="_레이어_1" xmlns="http://www.w3.org/2000/svg" viewBox="0 0 500 500"><defs><style>.cls-1{fill:none;stroke:#000;stroke-linecap:round;stroke-linejoin:round;stroke-width:3px;}</style></defs><path class="cls-1" d="m92.29,224.69c12.94-16.66,29.72-29.3,47.24-38.32,8.81-12.89,26.59-32.63,57.7-43.5,44.33-15.49,75.86,7.16,64.86,36.48,6.92,2.57,14.23,5.75,21.79,9.69,17.21-12.71,36.94-19.62,49.07-8.97,9.42,8.27,8.59,21.01,6.68,29.3,9.58-1.45,17.97-7.38,31.1-16.07,43.07-28.51,78.7,9.32,67.01,62.15-7.65,34.62-41.85,15.7-90.31,30.74,9.37,7.96,15.3,20.93-1.47,30.81-11.26,6.63-35.31-3.82-47.9-10.19-14.43,6.35-30.66,13-49.45,18.76,5.01,8.92,10.11,22.4,1.82,31.17-14,14.82-57.57-3.85-81.89-19.84-47.87-2.94-92.94-21.5-102.63-34.76-11.63-15.92-7.73-33.57,26.38-77.46Z"/></svg>