<?xml version="1.0" encoding="UTF-8"?><svg id="_레이어_1" xmlns="http://www.w3.org/2000/svg" viewBox="0 0 500 500"><defs><style>.cls-1{fill:none;stroke:#000;stroke-linecap:round;stroke-linejoin:round;stroke-width:3px;}</style></defs><path class="cls-1" d="m442.67,322.71c-15.63-32.7-1.58-43.79-5.33-50.56-3.75-6.77-9.33-14.81-6.11-44.14,4-36.44,29.46-47.25,24.79-45.93-43.89,12.45-53.22,64.11-74.98,80.93-9.81-4.28-20.85-10.1-35.05-16.94-.6-1.01-1.3-2.06-2.07-3.14-.07-.09-.14-.19-.21-.28-.36-.5-.74-1-1.14-1.51-.08-.11-.17-.22-.26-.33-.42-.53-.87-1.08-1.33-1.62-.05-.07-.11-.13-.16-.19-1.64-1.93-3.52-3.93-5.64-6,0,0,0,0,0,0-.7-.69-1.44-1.38-2.19-2.08-.02-.02-.04-.04-.06-.05-11.12-10.23-27.95-21.71-50.63-32.16-41.56-19.16-41.91-14.48-62.45-22.8-20.54-8.32-23.04-28.32-30.27-25.3-19.59,8.18-29.19,57.35-35.32,68.79-17.13,13.92-50.34,59.97-63.79,68.55-14.16,9.04-65.77,23.3-65.48,25.15.42,2.64,40.22,1.11,47.83.64,3.25-.2,6.81-.44,10.41-.68,1.09-.07,2.18-.14,3.27-.21.06,0,.13,0,.19-.01,1.17-.08,2.33-.15,3.48-.22.11,0,.21-.01.32-.02,1.1-.07,2.18-.13,3.24-.19.1,0,.2-.01.3-.02,1.14-.06,2.25-.12,3.33-.17,24.41-1.16,57.31,6.05,85.48,3.84,5.1,5.99,12.94,12.31,23.59,18.03,16.69,8.97,32.62,11.8,33.69,9.31.81-1.91-7.17.08-31.76-32.99,19.94-7.12,48.58-9.12,76.93-8.82,12.2,3.21,28.03,31.92,36.71,38.89,2.71,1.29,4.03-35.52,19.95-36.13.01,0,.03,0,.04,0,.36,0,.72,0,1.08,0,.64,0,1.28.01,1.92,0,13.91.64,21.15,9.27,24.36,9.2,3.44-.07,8.53-11.25,13.27-14.11,0,0,0,0,0,0,.62-.15,1.23-.31,1.83-.47.35-.09.71-.19,1.06-.28.71-.19,1.41-.38,2.1-.58.3-.08.6-.17.9-.25.62-.18,1.23-.36,1.84-.54,20.34,17.15,41.78,53.58,82.23,52.36,10.74-.33-17.31-.57-29.92-26.96Z"/></svg>