<?xml version="1.0" encoding="UTF-8"?><svg id="_레이어_1" xmlns="http://www.w3.org/2000/svg" viewBox="0 0 500 500"><defs><style>.cls-1{fill:none;stroke:#000;stroke-linecap:round;stroke-linejoin:round;stroke-width:3px;}</style></defs><path class="cls-1" d="m92.1,328c8.11.11,21.44.85,38.11,18.26,1.08,1.13,2.18,2.26,3.28,3.38.04.12.08.25.13.37,16.08,16.05,34.54,31.75,41.02,38.06,7.73,7.53,19.57,27.27,34.07,42.63,12.97,13.73,39.57,30.14,37.6,24.62-.2-.56-.69-1.34-1.52-2.37-.14-.18-.3-.36-.46-.56-.33-.39-.66-.79-1-1.21-10.46-13.04-25.76-41.53-25.76-41.53,9.11,3.76,36.22,11.85,36.23,11.85h0c22.78,26.09,52.87,41.26,61.69,44.37,5.78,2.04,11.68,4.91,11.68,1.96,0-.56-.21-1.33-.68-2.36-.06-.13-.12-.26-.19-.4-.13-.27-.28-.56-.45-.87-.08-.15-.17-.31-.26-.47-.37-.65-.8-1.37-1.32-2.16-.77-1.19-1.7-2.55-2.82-4.11-.33-.46-.65-.93-.97-1.4-.09-.14-.18-.27-.27-.41-.24-.37-.48-.74-.71-1.11-.08-.12-.16-.24-.23-.37-.28-.46-.56-.93-.83-1.4-.1-.17-.19-.34-.28-.5-.18-.32-.36-.65-.53-.97-.11-.21-.22-.41-.33-.62-.18-.34-.35-.68-.51-1.03-.17-.34-.33-.68-.49-1.03-.12-.26-.24-.52-.35-.78-.13-.29-.25-.58-.38-.87-.08-.2-.17-.4-.25-.59-.45-1.09-.87-2.21-1.26-3.34-.04-.11-.08-.22-.11-.34-.12-.35-.23-.7-.34-1.05-5.65-24.02,9.41-53.92,14.6-74.09,4.05-15.7-4.79-22.92-4.8-22.93h0s.01,0,.02,0c1.63.29,8.08,4.02,10.75,5.56.99.72,2.01,1.49,3.03,2.31l.15.12c4.84,3.86,9.96,8.67,14.55,13.42l.03.04c.61.63,1.2,1.25,1.79,1.88,0,0,.02.02.02.03.27.29.54.58.81.87.03.03.06.07.09.1.56.61,1.11,1.21,1.65,1.8.02.02.04.04.05.06.24.26.47.53.71.79.05.05.1.11.14.16.23.25.45.51.67.76.03.03.05.06.08.09.25.28.49.57.73.85.03.03.05.06.08.09.2.24.4.47.6.71.06.07.11.13.17.2.18.21.36.43.54.64.04.05.09.1.13.16.22.26.43.52.64.77.03.03.05.06.08.1.18.22.35.43.52.64.06.07.11.14.17.21.15.18.29.36.43.54.05.06.1.13.15.19.18.24.37.47.54.7.02.02.03.05.05.07.16.2.31.4.45.6.05.07.1.14.15.2.12.16.23.31.35.47.05.06.09.13.14.19.15.21.3.42.44.62.29.41.57.82.85,1.22.1.14.19.28.28.41.18.27.37.54.55.81.11.17.22.33.33.5.16.24.32.48.48.73.12.18.23.35.35.53.15.23.3.46.45.69.12.18.23.36.35.54.15.23.29.45.43.68.12.18.23.37.35.55.14.22.28.45.42.67.12.18.23.37.34.55.14.22.27.44.41.66.11.19.23.37.34.56.13.22.26.43.39.65.11.19.22.38.34.56.13.21.26.43.38.64.11.19.22.37.33.56.13.21.25.43.38.64.11.18.21.37.32.55.12.21.25.43.37.64.11.18.21.37.31.55.12.21.24.42.36.63.1.18.21.37.31.55.12.21.23.41.35.62.1.18.2.37.3.55.11.2.22.41.33.61.1.18.2.36.3.55.11.2.22.4.33.6.1.18.19.36.29.54.11.2.21.4.32.6.1.18.19.36.29.54.1.19.21.39.31.58.09.18.19.35.28.53.1.19.2.38.3.57.09.18.19.36.28.53.09.18.19.37.28.55.09.18.19.36.28.54.09.18.18.36.28.54.09.18.18.35.27.53.09.18.18.35.27.53.09.18.18.35.26.52.09.17.17.34.26.51.09.18.18.35.26.52.08.16.16.32.24.48.09.18.18.36.27.54.08.15.15.3.22.46.09.18.18.36.27.54.07.14.14.28.2.42.09.19.18.37.27.55.06.13.13.26.19.39.09.19.18.38.27.56.05.1.1.2.14.3.7,1.43,1.35,2.78,1.96,4.03,0,0,0,0,0,0,4.37,8.96,6.44,12.63,7.26,5.04,3.28-30.43,9.51-68.76,20.98-99.88,10.49-28.45,27.61-60.14,19.74-56.35-5.06,2.44-21.52,11.41-39.05,19.9,0,0,0,0,0,0-.51.25-1.02.49-1.53.74-.04.02-.08.04-.12.06-.47.22-.93.45-1.4.67-.09.04-.19.09-.28.13-.42.2-.83.4-1.25.59-.12.06-.25.12-.37.18-.39.18-.78.37-1.16.55-.14.07-.28.13-.42.2-.37.17-.74.35-1.11.52-.16.07-.32.15-.47.22-.35.16-.7.33-1.05.49-.17.08-.34.16-.52.24-.34.16-.68.31-1.01.46-.18.08-.36.16-.54.25-.33.15-.65.3-.98.44-.19.09-.38.17-.57.26-.32.14-.63.28-.95.43-.19.09-.39.17-.58.26-.31.14-.62.27-.92.41-.2.09-.4.17-.59.26-.3.13-.6.26-.9.39-.2.09-.4.18-.6.26-.29.13-.59.26-.88.38-.2.09-.41.18-.61.26-.29.12-.57.24-.86.37-.21.09-.41.17-.62.26-.28.12-.56.24-.84.35-.21.09-.42.17-.62.26-.27.11-.55.23-.82.34-.21.09-.42.17-.62.25-.27.11-.54.22-.8.33-.21.08-.41.17-.62.25-.26.11-.53.21-.79.31-.2.08-.41.16-.61.24-.26.1-.52.2-.78.3-.2.08-.41.16-.61.23-.25.1-.51.19-.76.29-.2.08-.4.15-.6.23-.25.09-.49.18-.74.27-.2.07-.4.15-.6.22-.24.09-.48.17-.72.26-.2.07-.39.14-.59.21-.24.08-.47.16-.71.24-.19.07-.38.13-.57.2-.23.08-.47.16-.7.23-.19.06-.37.12-.56.18-.23.07-.46.15-.68.22-.18.06-.36.12-.54.17-.23.07-.45.14-.67.2-.17.05-.35.11-.52.16-.22.07-.44.13-.66.19-.17.05-.34.1-.5.14-.22.06-.43.12-.65.18-.16.04-.32.09-.47.13-.22.06-.44.11-.66.17-.14.04-.29.07-.43.11-.24.06-.47.11-.7.16-.11.03-.23.05-.34.08-.34.08-.68.14-1.01.21-.83.16-1.61.31-2.39.45h0s0,0,0,0c0,0,0,0,0,0l-3,.45s0,.03,0,.08c0,0,0,0,0,0,0-.03,0-.05,0-.08-10.41,1.43-14.97,1.57-16.96,1.42-1.26-.19-1.55-.46-1.55-.46,0,0,11.75-18.7,5.51-39.98-6.42-21.9-12.94-36.31-45.89-70.91-23.15-24.31-45.33-45.69-35.53-69.05,1.82-4.34,5.15-8.5,8.94-13.07.28-.34.57-.67.85-1.01,5.71-6.63,13.39-13.07,21.99-19.09,22.45-15.28,49.6-25.12,63.45-29.76,75.76-25.36,93.81-26.28,93.81-26.28-12.07-5.97-55.11.96-111.42,20.54-45.55,15.84-66.73,35.09-86.86,48.02-12.54,8.05-25.46,18.89-37.81,30.85.21-.31.43-.62.64-.92-33.12,31.82-58.48,67.26-67.71,85.4-.06.11-.11.22-.17.33-.03.06-.07.13-.1.19,0,0,0,.02,0,.02-.34.68-.67,1.35-.96,1.98-11.18,24.16-18.35,52.26-21.14,60.76-.56,1.71-1.39,3.48-2.44,5.23-.85,1.37-1.83,2.73-2.92,4.05-.01.02-.03.03-.04.05-.09.11-.19.22-.28.33-4.47,5.11-10.97,9.34-18.74,10.31-12.45,1.55-29.12-1.1-29.12-1.1-4.28,15.14,6.37,28.65,31.18,28.98Z"/></svg>