<?xml version="1.0" encoding="UTF-8"?><svg id="_레이어_1" xmlns="http://www.w3.org/2000/svg" viewBox="0 0 500 500"><defs><style>.cls-1{fill:none;stroke:#000;stroke-linecap:round;stroke-linejoin:round;stroke-width:3px;}</style></defs><path class="cls-1" d="m85.04,276.46c-.27-.28-.54-.56-.81-.85-2.07-2.21-4.04-4.45-5.9-6.72-.14-.17-.27-.33-.4-.5-.8-.99-1.58-1.97-2.33-2.96-.16-.21-.32-.42-.48-.63-.8-1.06-1.58-2.13-2.33-3.19-.04-.06-.09-.12-.13-.18-1.68-2.38-3.2-4.74-4.58-7.05-.03-.05-.05-.09-.08-.14-.67-1.13-1.3-2.24-1.89-3.34-.01-.03-.03-.05-.04-.08-7.37-13.73-8.62-24.99-.39-26.48,17.13-3.1,36.51-23.75,66.7-40.85,7.15-4.05,14.3-6.94,21.42-8.93.89-12.75,21.96-36.98,61.43-25.87,35.65,10.04,25.41-1.12,42.78-7.33,17.37-6.2,46.4,32.55,62.88,21.32,0,0-1.99,22.24-29.6,21.04-29.22-1.27-17,18.59-18.94,22.94,0,0,0,0,0,0,8.73,5.73,15.91,10.68,21.15,13.5,6.28-10.7,18.97-27.47,38.07-30.33,27.94-4.18,46.65,17.25,61.99-12.06,0,0,4.02,16.91-2.98,33.52-7.57,17.95-15.7,22.52-33.97,27.37,0,0,14.32-3.44,35.33,2.25,29.96,8.1,38.58,21.42,48.06,31.93,0,0-15.23-7.46-28.96-2.08-12.53,4.91-27.79,31.25-67.86,20.89-24.98-6.46-39.91-29.14-47.62-45.31-.34.1-.7.17-1.05.25-.31.07-.6.16-.92.22-1.04.17-2.13.28-3.3.28-7.68,0-14.19,3.14-21.56,9.05-2.23,1.79-4.55,3.84-6.99,6.13,9.34,3.73,20.96,11.03,20.95,20.5-.01,12.67,17.38,38-6.11,24.56-16.46-9.42-24.18-22.15-27.64-32.45-4.5,4.54-9.48,9.58-15.18,15.13-5.6,5.45-12.61,9.78-20.5,13.08,6.06,2.07,11.23,4.34,13.65,6.82,7.59,7.76-.15,18.25.24,29.01.45,12.44,10.52,20.36,10.52,20.36-41.49-6.57-57.45-30.01-63.77-48.29-24.02.73-49-4.89-66.64-16.07-1.27-.8-2.52-1.65-3.76-2.51-.38-.26-.75-.54-1.13-.81-.87-.63-1.74-1.26-2.6-1.91-.4-.3-.8-.61-1.19-.92-.9-.7-1.79-1.42-2.67-2.15-.29-.24-.58-.47-.86-.71-1.16-.98-2.3-1.98-3.42-2.99-.2-.18-.39-.37-.59-.55-.92-.84-1.82-1.7-2.71-2.56-.32-.31-.64-.63-.96-.95-.8-.79-1.58-1.59-2.35-2.4Z"/></svg>