<?xml version="1.0" encoding="UTF-8"?><svg id="_레이어_1" xmlns="http://www.w3.org/2000/svg" viewBox="0 0 500 500"><defs><style>.cls-1{fill:none;fill-rule:evenodd;stroke:#000;stroke-linecap:round;stroke-linejoin:round;stroke-width:3px;}</style></defs><path class="cls-1" d="m158.69,135.68l8.48,1.61c12.99,1.45,30.82-12.14,31.55-19.01,1.95-15.04,7.74-26.4,15.46-34.03-.12-.06-.2-.11-.28-.16-10.46-3.48.03-13.72,4.09-3.23.02-.01.03-.03.05-.04l9.5-9.03c-.15-.25-.29-.51-.45-.77-6.78-8.05,5.85-11.37,5.34-2.09,3.64.12,7.15-.57,10.58-1.76-4.85-9.09,8.14-9.76,5.7-.72,4.23,2.76,8.73,3.68,13.33,3.52.15-.41.3-.83.45-1.27,1.87-11.04,13.89-1.81,3.35,3.81-.12.07-.22.13-.33.2,3.06,2.9,6.46,5.39,10.32,7.35.3-.36.6-.73.9-1.13,5.22-9.7,13.45,2.38,2.5,4.57,1.21,6.19,3.94,10.7,7.44,14.37,8.19-6.68,11.36,7.53.02,5.33-.92,5.58-.28,11.11,2.14,16.57.04,0,.07,0,.11,0,10.24-1.75,6.86,10.47-.64,5.84-2.06,6.51-2.69,12.8-1.85,18.86,9.3-1.1,6.13,10.15-1,6.1-2.16,8.11-2.09,15.87.53,23.2,7.13-1.65,6.54,9.06-1.59,6.51-1.88,3.25-3.06,6.74-3.69,10.4l41.26-27.17c-3.51,13.26,3.17,17.29,10.11,21,0,9.15,4.32,15.96,12.89,20.55-6.76,10.81-5.42,20.67-.86,24.06-8.04,12.9-3.98,20.46,1.16,28.83l-57.52-22.44c-1.07.82-2.77,1.29-5.2,1.01-.79,7.2.8,14.02,4.02,20.56,5.75-5.45,10.51,4.76,1.81,6.22,1.68,10.49,6.14,17.94,12.24,23.64,5.63-5.89,10.54,3.49,3.25,5.64-.59,7.95,3.2,14.06,8.16,19.67,5.6-6.48,10.72,4.01,1.88,5.12,1.66,11.36,6.23,17.12,11.51,21.53,5.96-3.14,7.82,5.57,1.39,5.98-4.49,8.97-3.94,17.46-1.25,25.77,8.43-1.97,6.28,9.7-1.64,5.13-4.29,6.47-6.64,13.61-8.14,21.03,5.61,1.45,2.04,8.92-3.27,5.45-5.13,5.65-9.92,12.03-14.34,19.15.06.06.12.12.18.18,7.7,5.6-2.53,11.25-4.26,3.29-6.48,1.88-12.35,4.89-17.84,8.62,2.24,4.15-4.03,7.05-6.17,2.16-6.99-.31-14.78.25-22.81,1.1-1.01,5.46-7.42,3.25-6.33-1.16,0,0-13.26-5.25-16.8-7.68,0,0-2.56,2.21-4.07.8-1.22-1.14.37-3.72.37-3.72-1.07-.97-2.1-2-3.07-3.12-18.11-23.46-7.97-59.2,20.53-58.28-31.29,22.27,2.52,58.19,24.09,36.68,23.01-22.94,5.04-52.24-19.24-67.55-82.48-52.02-72.81-103.72-12.51-174.68-5.93-.19-11.26-1.89-15.22-5.4-11.7-13.32-43.8-1.47-47.67-.08-5,10.2-19.48-16.2-8.61-16.9Z"/></svg>