<?xml version="1.0" encoding="UTF-8"?><svg id="_레이어_1" xmlns="http://www.w3.org/2000/svg" viewBox="0 0 500 500"><defs><style>.cls-1{fill:none;stroke:#000;stroke-linecap:round;stroke-linejoin:round;stroke-width:3px;}</style></defs><path class="cls-1" d="m474.99,321.88c-.19-2.94-12.78-1.4-16.61-15.62-3.83-14.22-14.69-17.86-14.69-17.86,0,0,7.62-6.83,4.1-17.83-2.21-6.91,3.64-13.86.83-14.97-2.71-1.07-26.68,4.79-30.43,26-13.57-7.14-43.9-22.36-80.76-36.19-36.94-13.86-80.43-26.32-120.2-27.86-2.35-2.24-4.22-4.99-5.37-8.36-7.61-22.26,9.57-58.58,3.32-59.94-6.25-1.37-17.57,5.08-31.24,33.39-10.91,22.6-21.33,34.25-25.08,38.03-62.51,8.41-95,30.11-95,30.11,0,0-34.95,24.41-38.66,43.93-.46,2.44-.09,4.13.94,5.22.08.08.16.15.24.23-.01.98.58,2.76,4,5.14,0,0,0,0,0,0,.03.02.07.05.1.07.08.06.17.12.26.17.06.04.12.08.18.12.09.06.18.12.27.18.07.04.14.09.2.13.09.06.19.12.28.17.07.04.15.09.22.13.1.06.2.12.3.18.08.04.15.09.23.14.1.06.21.12.32.18.08.05.16.09.25.14.11.06.22.12.33.18.09.05.18.09.27.14.11.06.23.12.35.18.09.05.19.1.28.15.12.06.24.12.37.19.1.05.2.1.3.15.12.06.25.12.38.18.11.05.21.1.32.15.13.06.27.13.4.19.11.05.22.1.34.16.14.06.28.13.42.19.12.05.24.11.36.16.14.06.29.13.44.19.12.05.25.11.37.16.15.06.31.13.46.2.13.05.26.11.39.16.16.07.32.13.48.2.14.06.28.11.42.17.16.07.33.13.5.2.15.06.29.11.44.17.17.07.35.13.52.2.15.06.3.12.46.17.18.07.36.13.54.2.16.06.32.12.48.18.18.07.37.13.56.2.17.06.34.12.51.18.19.07.38.13.58.2.18.06.35.12.54.19.2.07.4.14.6.2.18.06.37.12.55.19.21.07.43.14.64.21.19.06.37.12.56.18.22.07.45.14.67.22.19.06.38.12.58.18.23.07.46.14.69.22.2.06.4.12.6.19.24.07.48.14.72.22.21.06.42.13.63.19.24.07.49.15.74.22.22.06.43.13.66.19.25.07.52.15.77.22.23.06.45.13.68.19.28.08.56.16.84.23.22.06.43.12.65.18.29.08.59.16.88.24.23.06.45.12.68.18.31.08.62.16.94.25.22.06.44.12.67.18.35.09.7.18,1.06.27.2.05.4.1.61.16.4.1.81.2,1.22.31.17.04.33.08.5.13.58.14,1.18.29,1.78.43.83.2,1.67.4,2.53.6,10.22,2.39,21.88,4.68,34.34,6.76,2.9.48,5.84.95,8.82,1.41,8.81,14.01,20.63,27.2,32.35,24.52,11.21-2.57,13.78-10.96,13.46-18.89.1,0,.19.02.29.03,2.51.23,5.02.45,7.53.65,4.8.39,9.57.73,14.3,1.01,2.91.17,5.8.33,8.67.46,1.59.07,3.17.14,4.74.19,5.77.21,11.41.33,16.88.34,5.51,0,10.85-.09,15.95-.31,4.52-.2,9.14-.55,13.83-1.03,1.56-.16,3.13-.34,4.71-.52,7.1-.85,14.32-1.98,21.55-3.3,1.61-.29,3.21-.6,4.82-.91.8-.16,1.6-.31,2.41-.47,1.6-.32,3.2-.65,4.8-.98.8-.17,1.6-.34,2.39-.51,2.39-.51,4.77-1.04,7.14-1.59,1.58-.36,3.15-.73,4.72-1.1,2.35-.56,4.68-1.13,6.99-1.7.77-.19,1.54-.38,2.3-.58,3.27-.82,6.49-1.66,9.65-2.5,1.09-.29,2.16-.58,3.23-.87.93-.25,1.85-.5,2.77-.75.72-.2,1.44-.39,2.16-.59,1.27-.35,2.53-.7,3.78-1.05,2.41-.67,4.77-1.34,7.08-2,3.2-.92,6.29-1.82,9.26-2.68.62-.18,1.24-.36,1.84-.54,7.92-2.33,14.87-4.41,20.47-5.99,27.51-7.78,57.28-4.03,57.47-4.01,1.14.41,2.22.87,3.25,1.36.3.91.62,1.84.98,2.78,0,0,9.1,16.52,26.62,20.66,17.52,4.14,27.58,2.63,27.19-3.27Z"/></svg>